<svg xmlns="http://www.w3.org/2000/svg" width="190" height="190" viewBox="0 0 190 190"><defs><style>.cls-1{fill:#fff;}.cls-2{fill:#cce7ff;}.cls-3{fill:#07f;}</style></defs><title>homepage - features bullets svg ready</title><g id="ab4"><g id="outlines"><circle id="bg" class="cls-1" cx="95" cy="95" r="94"/><rect class="cls-2" x="27" y="82" width="2" height="54"/><path class="cls-3" d="M82,17a26,26,0,0,0-.15,52l8.56,6.58,4.22-9.85A26,26,0,0,0,82,17ZM93.38,64.14l-.31.17-3.48,8.12L82.53,67H82a24,24,0,1,1,11.38-2.86Z"/><path class="cls-3" d="M89,28H70V52h5v5H94V33H89ZM72,50V30H87V50H72ZM92,35V55H77V52H89V35Z"/><path class="cls-3" d="M95,1a94,94,0,1,0,94,94A94,94,0,0,0,95,1Zm0,186a92.13,92.13,0,0,1-83.77-54,16,16,0,0,1,7,1.87,18,18,0,0,0,8.88,2.1A18,18,0,0,0,36,134.9a16.12,16.12,0,0,1,8-1.9,16.12,16.12,0,0,1,8,1.9,18,18,0,0,0,8.88,2.1,18,18,0,0,0,8.88-2.1,20.4,20.4,0,0,1,3.28-1.32h0c.27-.08.57-.15.87-.21l.2,0,.84-.14.22,0a20.39,20.39,0,0,1,2.59-.15,16.12,16.12,0,0,1,8,1.9,19.87,19.87,0,0,0,17.76,0,17.87,17.87,0,0,1,16.05,0,19.88,19.88,0,0,0,17.77,0,17.88,17.88,0,0,1,16.06,0,19.88,19.88,0,0,0,17.77,0,16.11,16.11,0,0,1,7.47-1.89A92.13,92.13,0,0,1,95,187Zm5.56-87.39a18,18,0,0,0,9.24,4.26,19.28,19.28,0,0,0,12.27-2.73q.86-.5,1.68-1.08c.3-.21.6-.44.9-.67a1,1,0,0,0,.16-1.41,1,1,0,0,0-1.4-.17c-.29.23-.58.45-.88.65l-.35-.4a3,3,0,0,1-.72-2.18,2.53,2.53,0,0,1,.08-.48,9.74,9.74,0,0,0,3.8-2.16,2.94,2.94,0,0,1,1.38.9l.43.5A22.49,22.49,0,0,1,132.41,112h-6.05a16.45,16.45,0,0,0-.46-7.36c.62-.41,1.24-.86,1.84-1.33a1,1,0,0,0,.17-1.4,1,1,0,0,0-1.41-.17c-.43.34-.86.66-1.31,1s-1.12.75-1.7,1.08A22.88,22.88,0,0,1,112,107a18.47,18.47,0,0,1-2.59-.18,21.26,21.26,0,0,1-11-5.13Zm-3.64.74a31.74,31.74,0,0,1-3.2-3.7,1.47,1.47,0,0,1-.28-1.11,1.44,1.44,0,0,1,.6-1,1.28,1.28,0,0,1,.25-.15,1.41,1.41,0,0,1,.86-.13,1.51,1.51,0,0,1,1,.59l.42.55a28.61,28.61,0,0,0,2.52,2.84ZM117.4,88.92a1,1,0,0,0-1.36-.4,5.8,5.8,0,0,1-4.44.47l-.17,0a1,1,0,0,0-.2,0,7.94,7.94,0,0,1-.58-3.8c.71-.07,1.42-.16,2.13-.26a2,2,0,1,0,3.91-.71,50.54,50.54,0,0,0,8.58-2.71,8,8,0,0,1,1,6.68,7.83,7.83,0,0,1-1.66,3,8,8,0,0,1-12,.07c.2,0,.4,0,.6,0a7.79,7.79,0,0,0,3.72-1A1,1,0,0,0,117.4,88.92ZM109,83.24c-.5,0-1,.06-1.51.08l-1.89.07L109,79.24a1.1,1.1,0,0,0,.22-.52l.46-3.7a2.62,2.62,0,0,1,1.84-2.2L117,71.14a3.33,3.33,0,0,1,.93-.14,3.15,3.15,0,0,1,2.42,1.13l2.84,3.42a1,1,0,0,0,.59.34l6.11,1.1-.88.47c-1,.55-2,1.06-3.1,1.54-.66.3-1.32.58-2,.85A48.64,48.64,0,0,1,111.13,83C110.41,83.14,109.69,83.2,109,83.24ZM164,114v5H91c-6.47,0-18.93-1-24.53-2.9L53.89,112v-4.9l12,3.85c6,2,20,3,26.15,3Zm-98.15,4c5.79,1.93,18.55,3,25.15,3h70.3l-1.21,13.87a16.32,16.32,0,0,1-5.7-1.78,19.88,19.88,0,0,0-17.77,0,17.88,17.88,0,0,1-16.06,0,19.87,19.87,0,0,0-17.76,0,17.87,17.87,0,0,1-16.05,0,18,18,0,0,0-8.88-2.1,18.81,18.81,0,0,0-5.42.7h0a32.64,32.64,0,0,1-14-16.08Zm113.49,13a18,18,0,0,0-8.89,2.1,16.13,16.13,0,0,1-8,1.9h-.33l1.21-14H165a1,1,0,0,0,1-1v-7a1,1,0,0,0-1-1H134.43a24.54,24.54,0,0,0-5.76-18.67l-.43-.49a4.89,4.89,0,0,0-1.49-1.17,10.09,10.09,0,0,0,1.46-3h0a10,10,0,0,0-1.07-8c1-.44,1.89-.91,2.81-1.41l3.38-1.84a1,1,0,0,0-.3-1.86L124.48,74l-2.62-3.14a5.12,5.12,0,0,0-5.47-1.62l-5.45,1.68a4.65,4.65,0,0,0-3.23,3.87l-.42,3.41-4.68,5.63a1,1,0,0,0-.13,1.08,1,1,0,0,0,.9.56h0l4.1-.14,1.12-.05a10,10,0,0,0,10,10.58,8.26,8.26,0,0,0,.86,0,4.94,4.94,0,0,0,1.19,3.55l.17.19a17.27,17.27,0,0,1-10.76,2.34c-4.6-.62-8.75-3.38-12.33-8.21a3.47,3.47,0,0,0-1.9-1.29L92.62,79.76a1,1,0,0,0-1.94.49l3.11,12.2a3.46,3.46,0,0,0-.95.5,3.5,3.5,0,0,0-.72,4.89c4.68,6.32,10.56,10.12,17,11A22.63,22.63,0,0,0,112,109a24.84,24.84,0,0,0,12.14-3.3,14.54,14.54,0,0,1,.2,6.28H92c-2.24,0-5.54-.13-9.1-.4a1,1,0,0,0-.13-.24L78,105.67a72.77,72.77,0,0,0-39-24.1L28.23,79a1,1,0,0,0-1.2.74,1,1,0,0,0,.24.88A1.5,1.5,0,1,0,30,81.5h0l8.57,2a69.75,69.75,0,0,1,11.84,4A1.5,1.5,0,1,0,53,88.65a71,71,0,0,1,16.95,11.46,1.5,1.5,0,1,0,2,1.88c1.6,1.58,3.14,3.23,4.58,5l3.68,4.42c-5.24-.48-10.6-1.24-13.7-2.27L53.2,104.83a1,1,0,0,0-1.31,1v7a1,1,0,0,0,.69,1l3.41,1.1A35,35,0,0,0,70,132.6l-1.07.5a16.12,16.12,0,0,1-8,1.9,16.12,16.12,0,0,1-8-1.9A18,18,0,0,0,44,131a18,18,0,0,0-8.88,2.1,16.12,16.12,0,0,1-8,1.9,16.12,16.12,0,0,1-8-1.9A18,18,0,0,0,10.34,131,92,92,0,1,1,187,95a91.49,91.49,0,0,1-7.37,36.06A1,1,0,0,0,179.33,131Z"/></g></g></svg>