<svg id="svg6096" xmlns="http://www.w3.org/2000/svg" width="999" height="999.06" viewBox="0 0 999 999.06"><defs><style>.cls-1{fill:#fff;}</style></defs><title>cnet</title><g id="layer1"><path id="path4887" d="M500,999.56c275.89,0,499.51-223.6,499.51-499.49S775.88.5,500,.5.5,224.14.5,500.07,224.08,999.56,500,999.56" transform="translate(-0.5 -0.5)"/><path id="path4889" class="cls-1" d="M311.52,798.36h34.79V231.18H311.52Z" transform="translate(-0.5 -0.5)"/><path id="path4891" class="cls-1" d="M311.52,798.36h34.79V231.18H311.52Z" transform="translate(-0.5 -0.5)"/><path id="path4893" class="cls-1" d="M168.75,437.79c.61-36.15,62.57-37.18,62.57-1.74l.57,30.74h47.36V438.4c3.06-95-159.7-94.84-158.44-2.35V599.51c-1.26,92.49,161.54,94.82,158.64,0v-34.3H231.32v36.64c0,35.52-61.86,36.07-62.48,0V436l-.08,1.74" transform="translate(-0.5 -0.5)"/><path id="path4895" class="cls-1" d="M439.33,400.83s8.27-12.27,29.94-24.27c27.47-15.23,54.35-.06,50.46-1.74,21.65,9.55,29.84,32.8,31.38,58.73V627.07h30.47v35.52H503.23l0-231.29c0-33.74-56.91-32.68-57.46,1.58l.06-1.58V662.59H375.48V627l22.3.08V410.36l-26.46-.16V374.82h67.82l.18,26" transform="translate(-0.5 -0.5)"/><path id="path4897" class="cls-1" d="M794.29,598.72c1.5,25.93,9.69,49.2,31.34,58.79-4.05-1.87,10.54,5.41,25.59,5.27,7.91-.2,46.1-.16,46.1-.16V627.07s-19.26-.24-29.52-.16c-13,.16-24.29-6-25.24-24.35l.13-192-.13-.35H888.8V375.39H842.42l.26-.57V300.35H794.29V598.72" transform="translate(-0.5 -0.5)"/><path id="path4899" class="cls-1" d="M707.17,565.21v36.64c0,35.52-61.88,36.07-62.52,0V525.58l101.67.06a8.82,8.82,0,0,0,8.78-8.82V438.4c3-95-159.68-94.84-158.4-2.35V599.52c-1.28,92.49,161.54,94.82,158.56,0v-34.3H707.17ZM644.64,435.8c.83-35.5,62.52-35.2,62.52.24L707,489.51l-62.38,0V435.79" transform="translate(-0.5 -0.5)"/></g></svg>