<svg xmlns="http://www.w3.org/2000/svg" width="190" height="190" viewBox="0 0 190 190"><defs><style>.cls-1{fill:#fff;}.cls-2{fill:#cce7ff;}.cls-3{fill:#ffdac7;}.cls-4{fill:#e2a688;}.cls-5{fill:#b2b7c4;}.cls-6{fill:#80c3ff;}.cls-7{fill:#b3ddff;}.cls-8{fill:#ffdb80;}.cls-9{fill:#07f;}</style></defs><title>homepage - features bullets svg ready</title><g id="ab2"><g id="color"><circle id="bg" class="cls-1" cx="95" cy="95" r="94"/><rect id="file" class="cls-1" x="89" y="18" width="24" height="30"/><g id="pic"><rect class="cls-2" x="104" y="22" width="5" height="5"/></g><rect class="cls-2" x="98" y="29" width="11" height="2"/><rect class="cls-2" x="98" y="33" width="11" height="2"/><rect class="cls-2" x="98" y="37" width="11" height="2"/><rect id="file-2" data-name="file" class="cls-1" x="145" y="55" width="24" height="30"/><g id="pic-2" data-name="pic"><rect class="cls-2" x="160" y="59" width="5" height="5"/></g><rect class="cls-2" x="154" y="66" width="11" height="2"/><rect class="cls-2" x="154" y="70" width="11" height="2"/><rect class="cls-2" x="154" y="74" width="11" height="2"/><rect id="file-3" data-name="file" class="cls-1" x="27" y="55" width="24" height="30"/><g id="pic-3" data-name="pic"><rect class="cls-2" x="42" y="59" width="5" height="5"/></g><rect class="cls-2" x="36" y="66" width="11" height="2"/><rect class="cls-2" x="36" y="70" width="11" height="2"/><rect class="cls-2" x="36" y="74" width="11" height="2"/><path id="face_builder" data-name="face builder" class="cls-3" d="M159.46,77.94a12.06,12.06,0,1,1-24.12,0,1.48,1.48,0,0,1,0-.21c.17-2.88,3.35-9.28,12.05-5.36,8.39-4.07,11.74,1.72,12,5.08C159.45,77.62,159.46,77.78,159.46,77.94Z"/><path id="hair" class="cls-4" d="M159.46,77.94c0-3.23-3.25-9.85-12.06-5.57-8.92-4-12,2.81-12.06,5.57-.87-1.86-1-15.77,12.06-15.77S160.33,75.18,159.46,77.94Z"/><path id="face_engineer" data-name="face engineer" class="cls-3" d="M40.62,80.36a12.07,12.07,0,0,1-23.6.18,13.8,13.8,0,0,0,.65,1.53c.91-13.22,14-2.93,15.44-10.89,2,6.3,7.12,3.21,7.24,9.74Z"/><path id="hair-2" data-name="hair" class="cls-5" d="M40.35,80.92c-.12-6.52-5.19-3.43-7.24-9.73-1.49,8-14.54-2.34-15.45,10.89C15,76.71,13,63.65,29.32,63a5,5,0,0,1,4.09,2,6.74,6.74,0,0,1,4.11-.09C44.41,67.73,41.72,78.32,40.35,80.92Z"/><path id="face_pres" data-name="face pres" class="cls-3" d="M97.88,42.34v5.07a12.07,12.07,0,0,1-20.45,0V42.34c0-6,3.86-6.92,10.22-6.92a5.9,5.9,0,0,0,4.57-2C95.81,34.81,97.88,38,97.88,42.34Z"/><path class="cls-6" d="M92,103.83V106H69v-2.17A4.83,4.83,0,0,1,73.83,99H87.17A4.83,4.83,0,0,1,92,103.83Z"/><path class="cls-6" d="M140,113.91V153c0,5.92-5,9-5,9h-3s-5-3.08-5-9V114a8,8,0,0,0-8-8h13.11A7.91,7.91,0,0,1,140,113.91Z"/><path id="front" class="cls-7" d="M132,162H55s-5-3.08-5-9V113.91A7.91,7.91,0,0,1,57.91,106H119a8,8,0,0,1,8,8v39C127,158.92,132,162,132,162Z"/><path id="hair-3" data-name="hair" class="cls-8" d="M103.45,43.78c0-11.62-3.75-15.34-9.8-16.37a4.07,4.07,0,0,0-4.13-3.14c-13.94,0-17.65,5.58-17.65,19.51C71.86,53.07,70,54,70,54h7.43V42.34c0-6,3.86-6.92,10.22-6.92a5.9,5.9,0,0,0,4.57-2c3.59,1.39,5.65,4.54,5.65,8.92V54h7.43S103.45,53.07,103.45,43.78Z"/><g id="outlines"><circle class="cls-9" cx="34.36" cy="77.93" r="1.86"/><circle class="cls-9" cx="23.22" cy="77.93" r="1.86"/><path class="cls-9" d="M32.06,81.68l-.5.25a6.21,6.21,0,0,1-5.53,0l-.5-.25a1,1,0,0,0-.89,1.79l.5.25a8.22,8.22,0,0,0,7.32,0l.5-.25a1,1,0,1,0-.89-1.79Z"/><circle class="cls-9" cx="93.23" cy="40.99" r="1.86"/><circle class="cls-9" cx="82.08" cy="40.99" r="1.86"/><path class="cls-9" d="M90.92,44.74l-.5.25a6.22,6.22,0,0,1-5.54,0l-.5-.25a1,1,0,1,0-.89,1.79l.5.25a8.23,8.23,0,0,0,7.32,0l.5-.25a1,1,0,0,0-.89-1.79Z"/><polygon class="cls-9" points="94 61 92 61 92 86 86.9 86 93.01 90.79 99 86 94 86 94 61"/><path class="cls-9" d="M79,82A14,14,0,0,0,65,68H58v2h7A12,12,0,0,1,77,82v4H71.9L78,90.79,84,86H79Z"/><path class="cls-9" d="M107,82v4h-5.1L108,90.79,114,86h-5V82a12,12,0,0,1,12-12h7V68h-7A14,14,0,0,0,107,82Z"/><path class="cls-9" d="M70,55h7.43a1,1,0,0,0,1-1V50.25a13,13,0,0,0,18.45,0V54a1,1,0,0,0,1,1h7.43a1,1,0,0,0,.56-1.83c-.09-.11-.77-1-1.15-4.17H114V17H88v6.29c-10.88.3-17.14,4.08-17.14,20.49,0,7.62-1.29,9.24-1.42,9.39A1,1,0,0,0,70,55Zm26.88-7.9a11.05,11.05,0,0,1-18.45,0V42.34c0-4.59,2.07-5.92,9.22-5.92a6.94,6.94,0,0,0,4.81-1.79c2.83,1.34,4.42,4,4.42,7.72Zm2,5.9V42.34C98.88,38,97,34.75,93.76,33a7.89,7.89,0,0,0,1.1-4c0-.11,0-.21,0-.32,5.05,1.36,7.61,5.25,7.61,15.09,0,4.91.51,7.67,1.09,9.22ZM90,19h22V47h-7.46c-.06-.94-.09-2-.09-3.22,0-11.56-3.73-15.89-10.05-17.22a5.45,5.45,0,0,0-.84-1.49A5,5,0,0,0,90,23.29ZM72.86,43.78c0-14.19,3.89-18.51,16.65-18.51A3.07,3.07,0,0,1,92,26.34,4.19,4.19,0,0,1,92.86,29a5.21,5.21,0,0,1-5.21,5.41c-5.68,0-11.22.61-11.22,7.92V53H71.77C72.35,51.45,72.86,48.69,72.86,43.78Z"/><path class="cls-9" d="M26,62.32c-4.48.75-7.68,2.65-9.49,5.7-2.5,4.21-1.66,9.45-.45,12.82a13,13,0,0,0,2.32,5l0,0v0A13,13,0,0,0,39,86H52V54H26ZM28.79,89a11.05,11.05,0,0,1-10.14-6.68v-.18c.45-6.51,3.91-6.51,7.85-6.49,2.35,0,5.13,0,6.63-2a8.42,8.42,0,0,0,3.58,3.05c1.6.85,2.57,1.37,2.62,4.22v.25A11.06,11.06,0,0,1,28.79,89Zm8.89-14.05a6.19,6.19,0,0,1-3.61-4.07l-1.21-3.73L32.13,71c-.48,2.54-2.24,2.65-5.61,2.65-3.21,0-7.44,0-9.14,4.68-.75-3.07-.73-6.62.85-9.28,1.86-3.14,5.6-4.84,11.13-5.08h.16a4,4,0,0,1,3.07,1.55l.43.62.71-.25a5.8,5.8,0,0,1,3.4-.11,5.86,5.86,0,0,1,3.33,3.59,15.05,15.05,0,0,1,.06,8A6.41,6.41,0,0,0,37.68,74.95ZM28,56H50V84H40.35a13,13,0,0,0,1.22-3.36c1-2.34,2.3-7.69.77-12a7.79,7.79,0,0,0-4.43-4.76,7,7,0,0,0-4.16-.12A6,6,0,0,0,29.28,62c-.44,0-.85.07-1.28.1Z"/><circle class="cls-9" cx="152.97" cy="77.94" r="1.86"/><circle class="cls-9" cx="141.83" cy="77.94" r="1.86"/><path class="cls-9" d="M150.66,81.68l-.5.25a6.21,6.21,0,0,1-5.53,0l-.5-.25a1,1,0,0,0-.89,1.79l.5.25a8.22,8.22,0,0,0,7.32,0l.5-.25a1,1,0,0,0-.89-1.79Z"/><path class="cls-9" d="M95,1a94,94,0,1,0,94,94A94,94,0,0,0,95,1Zm0,186a92,92,0,1,1,92-92A92.1,92.1,0,0,1,95,187Z"/><path class="cls-9" d="M144,54v7.51a11.6,11.6,0,0,0-7.63,5.21c-2.7,4.25-2.64,9.7-2,11.44A13,13,0,0,0,157.65,86H170V54Zm3.4,35a11.07,11.07,0,0,1-11.06-11.06s0-.09,0-.14A6.51,6.51,0,0,1,139.18,73c2-1.26,4.6-1.17,7.8.27a1,1,0,0,0,.85,0c3.16-1.53,5.86-1.7,7.8-.49a6.49,6.49,0,0,1,2.79,4.59c0,.19,0,.38,0,.57A11.07,11.07,0,0,1,147.4,89Zm9.3-17.92c-1.73-1.08-4.73-1.91-9.31.19-4.56-1.93-7.55-1-9.28.05a7.79,7.79,0,0,0-1.94,1.77,13.72,13.72,0,0,1,1.89-5.31c1.95-3.07,5.09-4.63,9.34-4.63,4.09,0,7.14,1.34,9.09,4a12.65,12.65,0,0,1,2.16,5.7A7.53,7.53,0,0,0,156.7,71.08ZM168,84h-9.05a13,13,0,0,0,1.5-5.9A16,16,0,0,0,158.1,66c-2.34-3.19-5.94-4.81-10.7-4.81-.48,0-.94,0-1.4.07V56h22Z"/><path id="folder" class="cls-9" d="M132.09,105H93v-1.17A5.83,5.83,0,0,0,87.17,98H73.83A5.83,5.83,0,0,0,68,103.83V105H57.91A8.92,8.92,0,0,0,49,113.91V153c0,6.4,5.25,9.71,5.48,9.85A1,1,0,0,0,55,163h80a.93.93,0,0,0,.52-.15A12.17,12.17,0,0,0,141,153V113.91A8.92,8.92,0,0,0,132.09,105ZM70,103.83A3.84,3.84,0,0,1,73.83,100H87.17A3.84,3.84,0,0,1,91,103.83V105H70ZM51,153V113.91A6.92,6.92,0,0,1,57.91,107H119a7,7,0,0,1,7,7v39a11.57,11.57,0,0,0,3.29,8h-74A10.18,10.18,0,0,1,51,153Zm88,0a10.11,10.11,0,0,1-4.3,8h-2.39a10.18,10.18,0,0,1-4.31-8V114a9,9,0,0,0-3.37-7h7.46a6.92,6.92,0,0,1,6.91,6.91Z"/></g></g></g></svg>