<svg xmlns="http://www.w3.org/2000/svg" width="76" height="42" viewBox="0 0 76 42"><title>mf_logo</title><g id="flame_mono"><path id="flame" fill="#ffffff" d="M68,6.72C63.66,3,57.81,1.26,52.19,1a26.14,26.14,0,0,0-15,3.63c-.34.22-.68.45-1,.69A13.36,13.36,0,0,1,40,4.71c2.28,0,4.13,1.56,4.13,3.51s-1.83,3.53-4.11,3.53c-3,0-5.92-1-8.83-1.54a51.47,51.47,0,0,0-9.33-1c-10,0-13.09,5.17-13.09,5.17l.86-.65a7.24,7.24,0,0,1,2.92-1.46,2.16,2.16,0,0,1,1.57,3.93c-3.76,2.34-9.88,1.38-13,9.92A5.67,5.67,0,0,1,3,23.94,15.06,15.06,0,0,1,9.89,21.5a24.36,24.36,0,0,1,10,.49c1.86.51,4,1.21,5.09,3,.9,1.46.91,3.46-.82,4.29a9,9,0,0,1-4.11.7h-.06a46.86,46.86,0,0,1,10.57,2.68c5.84,2.49,11.27,6,17.48,7.53a24,24,0,0,0,14.45-.53A19.75,19.75,0,0,0,74.58,24.54,19.89,19.89,0,0,0,68,6.72Zm-43,18.1,0,0-.06-.06.06.06,0,0ZM57.35,30a27,27,0,0,1-11.73-3.17c-7.61-3.7-10.7-5-10.7-5.22s4.55,1.57,12.2-2.62c4.42-2.42,6.1-5,10.18-5a8,8,0,1,1,0,16Z"/></g></svg>