<svg xmlns="http://www.w3.org/2000/svg" width="120" height="120" viewBox="0 0 120 120"><defs><style>.cls-1{fill:#6c3;}</style></defs><title>top_featuresv2</title><g id="ab8"><path class="cls-1" d="M42.92,68.66v-11H38.65v-2.6a8.14,8.14,0,0,0,1.73-.13,4.52,4.52,0,0,0,1.5-.56A3.7,3.7,0,0,0,43,53.3a3.74,3.74,0,0,0,.61-1.63h2.74v17Z"/><path class="cls-1" d="M50.66,54.54v-3.2H64.85v3.2H59.66V68.66H55.85V54.54Z"/><path class="cls-1" d="M75,51.34a10.8,10.8,0,0,1,2.26.22,4.88,4.88,0,0,1,1.75.72,3.33,3.33,0,0,1,1.13,1.32,4.65,4.65,0,0,1,.4,2,3.79,3.79,0,0,1-.59,2.18,4.32,4.32,0,0,1-1.76,1.43,4.16,4.16,0,0,1,2.39,1.61,5.29,5.29,0,0,1,.28,5,4.42,4.42,0,0,1-1.37,1.56,6.08,6.08,0,0,1-2,.9,8.87,8.87,0,0,1-2.27.29h-8.4V51.34Zm-.49,7a2.74,2.74,0,0,0,1.67-.49,1.83,1.83,0,0,0,.65-1.58,2,2,0,0,0-.22-1,1.62,1.62,0,0,0-.58-.61,2.46,2.46,0,0,0-.84-.3,5.55,5.55,0,0,0-1-.08H70.65v4.05Zm.22,7.35a5.09,5.09,0,0,0,1.07-.11,2.62,2.62,0,0,0,.9-.36,1.84,1.84,0,0,0,.62-.69,2.39,2.39,0,0,0,.23-1.12,2.24,2.24,0,0,0-.75-1.9,3.21,3.21,0,0,0-2-.57H70.65V65.7Z"/><path class="cls-1" d="M60,29a2.4,2.4,0,0,1,1.2.32L86,43.61a2.41,2.41,0,0,1,1.2,2.08V74.31A2.41,2.41,0,0,1,86,76.39L61.2,90.7a2.4,2.4,0,0,1-2.4,0L34,76.39a2.41,2.41,0,0,1-1.2-2.08V45.69A2.41,2.41,0,0,1,34,43.61L58.8,29.3A2.4,2.4,0,0,1,60,29m0-5a7.4,7.4,0,0,0-3.7,1L31.51,39.28a7.4,7.4,0,0,0-3.7,6.41V74.31a7.4,7.4,0,0,0,3.7,6.41L56.3,95a7.4,7.4,0,0,0,7.4,0L88.49,80.72a7.4,7.4,0,0,0,3.7-6.41V45.69a7.4,7.4,0,0,0-3.7-6.41L63.7,25A7.4,7.4,0,0,0,60,24Z"/></g></svg>