<svg xmlns="http://www.w3.org/2000/svg" width="120" height="120" viewBox="0 0 120 120"><defs><style>.cls-1{fill:#6c3;}</style></defs><title>top_featuresv2</title><g id="ab11"><path class="cls-1" d="M74.22,63.29l-3-3a6.83,6.83,0,0,0-9-.55l-2-2a6.83,6.83,0,0,0-.55-9l-3-3a6.75,6.75,0,0,0-4.81-2h0a6.75,6.75,0,0,0-4.81,2l-1.31,1.31a6.81,6.81,0,0,0,0,9.62l3,3a6.83,6.83,0,0,0,9,.55l2,2a6.83,6.83,0,0,0,.55,9l3,3a6.75,6.75,0,0,0,4.81,2h0a6.75,6.75,0,0,0,4.81-2l1.31-1.31A6.81,6.81,0,0,0,74.22,63.29ZM54,54a1.77,1.77,0,0,0,0,2.5l1.16,1.17a3.27,3.27,0,0,1-3.93-.51l-3-3a3.27,3.27,0,0,1,0-4.62l1.31-1.31a3.27,3.27,0,0,1,4.62,0l3,3a3.27,3.27,0,0,1,.51,3.93L56.54,54A1.77,1.77,0,0,0,54,54ZM66,66a1.77,1.77,0,0,0,0-2.5l-1.16-1.17a3.27,3.27,0,0,1,3.93.51l3,3a3.27,3.27,0,0,1,0,4.62l-1.31,1.31h0a3.27,3.27,0,0,1-4.62,0l-3-3a3.27,3.27,0,0,1-.51-3.93L63.46,66A1.77,1.77,0,0,0,66,66Z"/><path class="cls-1" d="M60,29a2.4,2.4,0,0,1,1.2.32L86,43.61a2.41,2.41,0,0,1,1.2,2.08V74.31A2.41,2.41,0,0,1,86,76.39L61.2,90.7a2.4,2.4,0,0,1-2.4,0L34,76.39a2.41,2.41,0,0,1-1.2-2.08V45.69A2.41,2.41,0,0,1,34,43.61L58.8,29.3A2.4,2.4,0,0,1,60,29m0-5a7.4,7.4,0,0,0-3.7,1L31.51,39.28a7.4,7.4,0,0,0-3.7,6.41V74.31a7.4,7.4,0,0,0,3.7,6.41L56.3,95a7.4,7.4,0,0,0,7.4,0L88.49,80.72a7.4,7.4,0,0,0,3.7-6.41V45.69a7.4,7.4,0,0,0-3.7-6.41L63.7,25A7.4,7.4,0,0,0,60,24Z"/></g></svg>