<svg xmlns="http://www.w3.org/2000/svg" width="120" height="120" viewBox="0 0 120 120"><defs><style>.cls-1{fill:#6c3;}</style></defs><title>top_featuresv2</title><g id="ab12"><path class="cls-1" d="M60,29a2.4,2.4,0,0,1,1.2.32L86,43.61a2.41,2.41,0,0,1,1.2,2.08V74.31A2.41,2.41,0,0,1,86,76.39L61.2,90.7a2.4,2.4,0,0,1-2.4,0L34,76.39a2.41,2.41,0,0,1-1.2-2.08V45.69A2.41,2.41,0,0,1,34,43.61L58.8,29.3A2.4,2.4,0,0,1,60,29m0-5a7.4,7.4,0,0,0-3.7,1L31.51,39.28a7.4,7.4,0,0,0-3.7,6.41V74.31a7.4,7.4,0,0,0,3.7,6.41L56.3,95a7.4,7.4,0,0,0,7.4,0L88.49,80.72a7.4,7.4,0,0,0,3.7-6.41V45.69a7.4,7.4,0,0,0-3.7-6.41L63.7,25A7.4,7.4,0,0,0,60,24Z"/><path class="cls-1" d="M48.6,61.55l10.16,8.12h0l.05,0a2,2,0,0,0,.29.18l.11,0,.28.1.11,0a2,2,0,0,0,.39,0h0a2,2,0,0,0,.39,0l.11,0,.28-.1.11,0a2,2,0,0,0,.29-.18l.05,0h0L71.4,61.55a2,2,0,0,0-2.5-3.12L62,63.94V47H58V63.94l-6.91-5.52a2,2,0,0,0-2.5,3.12Z"/><rect class="cls-1" x="43.01" y="72.01" width="33.98" height="2"/></g></svg>