<svg xmlns="http://www.w3.org/2000/svg" width="120" height="120" viewBox="0 0 120 120"><defs><style>.cls-1{fill:#6c3;}</style></defs><title>top_featuresv2</title><g id="ab9"><path class="cls-1" d="M88.49,39.28,63.7,25a7.4,7.4,0,0,0-7.4,0L31.51,39.28a7.4,7.4,0,0,0-3.7,6.41V74.31a7.4,7.4,0,0,0,3.7,6.41L56.3,95a7.4,7.4,0,0,0,7.4,0L88.49,80.72a7.4,7.4,0,0,0,3.7-6.41V45.69A7.4,7.4,0,0,0,88.49,39.28ZM32.81,45.69A2.41,2.41,0,0,1,34,43.61L58.8,29.3a2.4,2.4,0,0,1,2.4,0L84.71,42.88l-8.71,5V46.45a2.29,2.29,0,0,0-1-2.11l-.31-.16a1.73,1.73,0,0,0-1.79.14c-1.31.94-5.39,2.8-7.92,4.27a67.61,67.61,0,0,1-6.11,3.13V51H44.71A1.71,1.71,0,0,0,43,52.75v7.57A1.71,1.71,0,0,0,44.71,62h3.17v1.92L32.81,72.57ZM72.42,65.2,72,65S67.77,63,65.14,61.42c-.48-.28-.95-.54-1.4-.78L73,55.34V64.5C73,65.18,73.06,65.44,72.42,65.2ZM58.81,57.7V54.36h.9a49.64,49.64,0,0,0,5.43-2.71C67.77,50.11,72,48,72,48l.42-.16c.64-.24.58.45.58,1.13v.58ZM87.19,74.31A2.41,2.41,0,0,1,86,76.39L61.2,90.7a2.4,2.4,0,0,1-2.4,0L35.11,77l13.18-7.54a8.71,8.71,0,0,0,3.27,4.76c1.23.61,5.64,1.07,6.43-.78s-2.77-3.74-2.77-7.77v-.18l5.66-3.24c1.21.59,2.64,1.33,4.11,2.19,2.53,1.48,6.61,3.33,7.92,4.27a1.73,1.73,0,0,0,1.79.14l.31-.16A1.72,1.72,0,0,0,76,67V59.71a3.05,3.05,0,0,0,0-6v-.11l11.19-6.4Z"/></g></svg>