<svg xmlns="http://www.w3.org/2000/svg" width="446" height="283" viewBox="0 0 446 283"><defs><style>.cls-1{fill:#f9d97e;}.cls-2{fill:#e8eaec;}.cls-3{fill:#fff;}.cls-4{fill:#eff0f1;}.cls-5{fill:#868a8d;}.cls-6{fill:#e3e4e5;}.cls-7{fill:#f0f1f1;}.cls-8{fill:#bebebf;}.cls-9{fill:#d1d2d2;}.cls-10{fill:#dbdcdc;}.cls-11{fill:#ffdac7;}.cls-12{fill:#3e4349;}.cls-13{fill:#5a9eec;}.cls-14{fill:#888d9c;}.cls-15{fill:#e8e9ec;}</style></defs><title>unicorn pro illustration - svg ready</title><g id="bg"><circle class="cls-1" cx="115" cy="42" r="23"/><path class="cls-2" d="M314,324v13.19h2V326h48v18.3h2V324Z" transform="translate(-2 -107)"/><path class="cls-3" d="M266.9,121a12.43,12.43,0,0,0-12.4-14h-27a12.44,12.44,0,0,0-12.4,14h-9.6a12.5,12.5,0,0,0,0,25h61a12.49,12.49,0,0,0,.4-25Z" transform="translate(-2 -107)"/><path class="cls-3" d="M342.9,211a12.43,12.43,0,0,0-12.4-14h-27a12.44,12.44,0,0,0-12.4,14h-9.6a12.5,12.5,0,0,0,0,25h61a12.49,12.49,0,0,0,.4-25Z" transform="translate(-2 -107)"/><path class="cls-3" d="M87.9,206a12.43,12.43,0,0,0-12.4-14h-27a12.44,12.44,0,0,0-12.4,14H26.5a12.5,12.5,0,0,0,0,25h61a12.49,12.49,0,0,0,.4-25Z" transform="translate(-2 -107)"/><path class="cls-2" d="M279,221V203H262V169h-2v34H243v18H225v48.6h2V223h18V205h32v18h18V338h2V221Z" transform="translate(-2 -107)"/><rect class="cls-4" x="314" y="219" width="48" height="62"/><polygon class="cls-4" points="275 98 243 98 243 116 225 116 225 172 174 172 174 195 124 195 124 148.3 101.04 136.28 80 148.25 80 281 225 281 241 281 293 281 293 116 275 116 275 98"/><path class="cls-2" d="M174,277v23H128V254.09L103,241,80,254.09V331h2V255.25l21-12,23,12V302h50V279h67v62h2V277Z" transform="translate(-2 -107)"/><path class="cls-5" d="M439,388H29a1,1,0,0,0,0,2H439a1,1,0,0,0,0-2Z" transform="translate(-2 -107)"/><path class="cls-5" d="M24,388H10a1,1,0,0,0,0,2H24a1,1,0,0,0,0-2Z" transform="translate(-2 -107)"/><path class="cls-5" d="M5,388H3a1,1,0,0,0,0,2H5a1,1,0,0,0,0-2Z" transform="translate(-2 -107)"/><path class="cls-5" d="M447,388h-2a1,1,0,0,0,0,2h2a1,1,0,0,0,0-2Z" transform="translate(-2 -107)"/></g><g id="modded_civvy_copy" data-name="modded civvy copy"><g id="wheel"><circle class="cls-6" cx="153.55" cy="266.59" r="13.41"/><circle class="cls-7" cx="153.55" cy="266.59" r="8.94"/><path class="cls-8" d="M155.55,383.53a9.94,9.94,0,1,1,9.94-9.94A10,10,0,0,1,155.55,383.53Zm0-17.88a7.94,7.94,0,1,0,7.94,7.94A8,8,0,0,0,155.55,365.65Z" transform="translate(-2 -107)"/></g><g id="wheel-2" data-name="wheel"><circle class="cls-6" cx="69.73" cy="266.59" r="13.41"/><circle class="cls-7" cx="69.73" cy="266.59" r="8.94"/><path class="cls-8" d="M71.73,383.53a9.94,9.94,0,1,1,9.94-9.94A10,10,0,0,1,71.73,383.53Zm0-17.88a7.94,7.94,0,1,0,7.94,7.94A8,8,0,0,0,71.73,365.65Z" transform="translate(-2 -107)"/></g><g id="body"><circle id="headlight" class="cls-9" cx="177.02" cy="245.35" r="3.35"/><rect class="cls-6" x="51.99" y="322.8" width="5.59" height="27.14" rx="2.52" ry="2.52" transform="translate(-287.23 206.29) rotate(-76.87)"/><path class="cls-6" d="M189,380l-5-3V366a12.2,12.2,0,0,0-6.1-10.64c.06,0,0-5.79,0-5.79a1.63,1.63,0,0,0-1.75-1.62,14.16,14.16,0,0,0-9.17,4.22,147.48,147.48,0,0,0-24.81-3.1l-14.29-13.79a23.37,23.37,0,0,0-14.8-5.28H98.85a20.58,20.58,0,0,0-15.39,6.91L72.72,349c-8.44,0-21.61,1.55-21.61,1.55-5.39.38-9.11,5-9.11,10.45v16H39a3,3,0,0,0,0,6H55v-6h0v-.06A16.77,16.77,0,0,1,72.55,360.2C81.56,360.63,88,368,88,377v4a2,2,0,0,0,2,2h47a2,2,0,0,0,2-2v-4a16.64,16.64,0,0,1,17.37-16.8c9,.43,15.63,8.78,15.63,17.8v5h16A1.62,1.62,0,0,0,189,380ZM79.43,349l7.78-9a15,15,0,0,1,11.21-5h15.23a17.83,17.83,0,0,1,11.1,3.89L135.38,349Z" transform="translate(-2 -107)"/><path id="tail_light" data-name="tail light" class="cls-10" d="M48,355v4a1.91,1.91,0,0,1-2,2H42v-.58A10.63,10.63,0,0,1,45.4,353l.6,0A1.91,1.91,0,0,1,48,355Z" transform="translate(-2 -107)"/></g><path id="outlines" class="cls-8" d="M189.6,379.2l-4.6-2.77V366a13.3,13.3,0,0,0-4.24-9.67,4.32,4.32,0,0,0-2.34-8.27,2.63,2.63,0,0,0-.37-.43,2.59,2.59,0,0,0-2-.68,15.22,15.22,0,0,0-9.44,4.15,183.17,183.17,0,0,0-24-3l-14.09-13.58A24.44,24.44,0,0,0,113.08,329H98.85a21.58,21.58,0,0,0-16.13,7.25L72.27,348c-3.75,0-8.34.34-12.3.67L57.76,341l6.92,1.61a3.52,3.52,0,0,0,4.23-2.63l.12-.53a3.53,3.53,0,0,0-2.63-4.23l-21.51-5a3.52,3.52,0,0,0-4.23,2.63l-.12.53a3.52,3.52,0,0,0,2.63,4.23l8.6,2,2.76,9.62c-2.1.21-3.46.37-3.49.37a10.4,10.4,0,0,0-6.05,2.5h0l-.13.12a11.2,11.2,0,0,0-2.76,3.76A10.38,10.38,0,0,0,41,360.42V376H39a4,4,0,0,0,0,8H56v-7.86a15.67,15.67,0,0,1,2-7,14.42,14.42,0,1,0,27.87,1.73A16.81,16.81,0,0,1,87,377v4a3,3,0,0,0,3,3h47a3,3,0,0,0,3-3v-4a16.14,16.14,0,0,1,1.59-6.95,14.42,14.42,0,1,0,28.21,1.54A17.81,17.81,0,0,1,171,378v6h17a2.66,2.66,0,0,0,2.65-1.77A2.71,2.71,0,0,0,189.6,379.2ZM178.9,350H179a2.35,2.35,0,0,1,0,4.71l-.12,0ZM176.24,349a.66.66,0,0,1,.46.15.69.69,0,0,1,.2.47v4.06a16.52,16.52,0,0,0-5.15-1.51s-1-.22-2.58-.53A13.38,13.38,0,0,1,176.24,349Zm-92-11.38A19.64,19.64,0,0,1,98.85,331h14.23a22.46,22.46,0,0,1,14.11,5l12.44,12h-3.85l-10.41-9.9a18.91,18.91,0,0,0-11.72-4.1H98.42a16,16,0,0,0-12,5.38L79,348h-4ZM132.88,348H98V336l.42,0h15.23a16.77,16.77,0,0,1,10.4,3.61ZM93,337.11V348H81.62L88,340.7A13.94,13.94,0,0,1,93,337.11Zm-49.38-1.5a1.53,1.53,0,0,1-1.14-1.83l.12-.53a1.52,1.52,0,0,1,1.83-1.14l21.51,5A1.53,1.53,0,0,1,67.08,339l-.12.53a1.53,1.53,0,0,1-1.83,1.14Zm.33,21.07A10.88,10.88,0,0,1,45.84,354H46a.92.92,0,0,1,1,1v4a.92.92,0,0,1-1,1H43A10.06,10.06,0,0,1,43.95,356.67ZM54,382H39a2,2,0,0,1,0-4H54Zm17.73,4a12.41,12.41,0,0,1-1.36-24.75l.18,0,.68,0c.32,0,.64,0,1,0l.65,0,.26,0A12.41,12.41,0,0,1,71.73,386ZM137,382H90a1,1,0,0,1-1-1v-3h49v3A1,1,0,0,1,137,382Zm18.55,4a12.41,12.41,0,0,1-1.38-24.74l.23,0,.67,0H156l.61,0,.39,0A12.41,12.41,0,0,1,155.55,386Zm1.62-26.73-.32,0-.43,0c-.25,0-.5,0-.75,0h-.12c-.3,0-.6,0-.9,0A17.28,17.28,0,0,0,143.53,364a18,18,0,0,0-5.48,12H89c-.46-9-7-16-15.65-16.73l-.25,0-.46,0h-.39l-.48,0-.54,0-.8,0-.27,0A17.67,17.67,0,0,0,54,376H43V362h3a2.9,2.9,0,0,0,3-3v-4a2.91,2.91,0,0,0-1.22-2.45,8.48,8.48,0,0,1,3.45-1c.13,0,13.33-1.54,21.61-1.54h65.95c14.08,0,32.34,4,32.62,4.09,6.71.83,11.59,5.85,11.59,11.91v10H172.88C172,367.23,165.35,360.07,157.17,359.27Zm31.58,22.33c-.08.25-.36.4-.75.4H173v-4h10.72l4.71,2.83A.72.72,0,0,1,188.75,381.6Z" transform="translate(-2 -107)"/></g><g id="f1"><g id="driver"><circle id="face" class="cls-11" cx="304.95" cy="242.43" r="9.81"/><path class="cls-3" d="M316.47,347H311a5.17,5.17,0,0,0-5.17,5.17v7h0A9.81,9.81,0,1,1,316.47,347Z" transform="translate(-2 -107)"/><path class="cls-12" d="M317.34,346.47a5.46,5.46,0,0,0-.39-1.13,10.81,10.81,0,0,0-20.81,4.09,10.69,10.69,0,0,0,2.25,6.57h2.73a8.71,8.71,0,0,1-3-6.57A8.81,8.81,0,0,1,315.08,346H311a6.18,6.18,0,0,0-6.17,6.17V356h2v-3.78A4.17,4.17,0,0,1,311,348h4.63a9,9,0,0,1,.12,1.38,8.76,8.76,0,0,1-3,6.57h2.73a10.69,10.69,0,0,0,2.24-6.57A19.19,19.19,0,0,0,317.34,346.47Z" transform="translate(-2 -107)"/></g><g id="body-2" data-name="body"><path class="cls-13" d="M225.09,369a17.89,17.89,0,0,1,5.56-13H210.09l0,10.09a16.84,16.84,0,0,0,17,16.91h4.69A18,18,0,0,1,225.09,369Z" transform="translate(-2 -107)"/><path class="cls-13" d="M414.94,379.2l-2.26-6.77a7.84,7.84,0,0,0-5.65-5.15l-71.63-16.79a2.78,2.78,0,0,0-3.18,1.59,7.44,7.44,0,0,1-4.32,3.93H293.52l-1.84-11a5.11,5.11,0,0,0-4.59-4h-12c-12.52,0-11.3,9.35-21.54,13.36a17.87,17.87,0,0,1,2,1.7c.41.39.79.8,1.16,1.22l0,0c.34.4.66.81,1,1.23l.32.48c.19.29.38.58.55.88l.34.6c.15.28.29.57.43.86s.2.43.3.65.26.66.38,1c.06.17.13.34.19.52h0A18,18,0,0,1,254.4,383h87c8.79,0,15.87-10.85,28.21-8.59,6.33,1.16,13.85,2.62,20.84,4l-.35.57a2.55,2.55,0,0,0,2,4h19a.89.89,0,0,0,.72-.26l1.28.26C415.06,383,415.56,381.07,414.94,379.2Z" transform="translate(-2 -107)"/></g><rect id="stripe" class="cls-3" x="258.09" y="260" width="60" height="5"/><g id="wheel-3" data-name="wheel"><circle class="cls-14" cx="241.09" cy="262" r="18"/><circle class="cls-15" cx="241.09" cy="262" r="7"/><path class="cls-12" d="M243.09,377a8,8,0,1,1,8-8A8,8,0,0,1,243.09,377Zm0-14a6,6,0,1,0,6,6A6,6,0,0,0,243.09,363Z" transform="translate(-2 -107)"/></g><g id="wheel-4" data-name="wheel"><circle class="cls-14" cx="369.09" cy="262" r="18"/><circle class="cls-15" cx="369.09" cy="262" r="7"/><path class="cls-12" d="M371.09,377a8,8,0,1,1,8-8A8,8,0,0,1,371.09,377Zm0-14a6,6,0,1,0,6,6A6,6,0,0,0,371.09,363Z" transform="translate(-2 -107)"/></g><path id="side_intake" data-name="side intake" class="cls-12" d="M322.46,253h2.38a2.16,2.16,0,0,1,2.16,2.16v14.68a2.16,2.16,0,0,1-2.16,2.16h-2.38a5.46,5.46,0,0,1-5.46-5.46v-8.08A5.46,5.46,0,0,1,322.46,253Z"/><g id="outlines-2" data-name="outlines"><path class="cls-12" d="M415.89,378.89l-2.26-6.77a8.87,8.87,0,0,0-6.37-5.81L388.72,362a18.94,18.94,0,0,0-30.29-7.1l-22.81-5.35a3.8,3.8,0,0,0-4.32,2.15A6.39,6.39,0,0,1,327.7,355H294.36l-1.7-10.2a6.14,6.14,0,0,0-5.57-4.8H287v-5a1.84,1.84,0,0,0-2-2l-11.08.06c-15.32,0-12.1,12.21-22.94,18.68a18.83,18.83,0,0,0-19,1.87v-8.66c1,0,2,.05,3.09.05h2a1,1,0,1,0-.08-2c-.39,0-.86,0-1.31,0h-.65c-14.23,0-23.32-2.88-30.4-9.63a1,1,0,0,0-1.38,1.45,32.18,32.18,0,0,0,5.7,4.41V356H189a1,1,0,0,0,0,2h20v4H193a1,1,0,0,0,0,2h16s.09,3.37.15,4H184a1,1,0,0,0,0,2h25.47a17.81,17.81,0,0,0,17.62,14h4.38a18.87,18.87,0,0,0,23.24,0h86.67a16.18,16.18,0,0,0,7-1.86c2.4-.64,4.93-1.34,7.42-1.88a18.9,18.9,0,0,0,28.39,2.43c2.36.43,4.69.86,6.87,1.31,0,0,22,0,22,0a2.93,2.93,0,0,0,2.47-1.19A4.4,4.4,0,0,0,415.89,378.89ZM263.08,348.14c2.83-3.29,5.27-6.14,12-6.14h12a4.1,4.1,0,0,1,3.6,3.13l1.64,9.87H255.89l-.44-.4A23,23,0,0,0,263.08,348.14Zm-36,33.86A16,16,0,0,1,211,366v-9h17.38l-.38.47A18.92,18.92,0,0,0,229.27,382Zm16,4a17,17,0,1,1,17-17A17,17,0,0,1,243.09,386Zm90-9a4.79,4.79,0,0,1-5,5H256.91a18.92,18.92,0,0,0,.9-25h70a5.06,5.06,0,0,1,5.32,5Zm-2.19-21.61a8.16,8.16,0,0,0,2.24-2.9,1.78,1.78,0,0,1,2-1l21.6,5.07A19.19,19.19,0,0,0,354,360.8ZM371.09,386a17,17,0,1,1,17-17A17,17,0,0,1,371.09,386ZM392,382a1.2,1.2,0,0,1-1.13-.73,1.72,1.72,0,0,1,.07-1.74,16.19,16.19,0,0,0,2.88-8.38l9.22,2.16a7.57,7.57,0,0,1,5.36,4.44l2.32,4.24Zm21.94-.36a.86.86,0,0,1-.76.36l-.33-.06a2.39,2.39,0,0,0-.2-.5l-2.47-4.57a9.58,9.58,0,0,0-6.7-5.5l-9.22-2.16a2,2,0,0,0-1.92.59l-2.27-.53c0-.09,0-.18,0-.26a18.91,18.91,0,0,0-.64-4.82l17.36,4.07a6.92,6.92,0,0,1,4.93,4.5l2.25,6.77A2.49,2.49,0,0,1,413.94,381.64Z" transform="translate(-2 -107)"/><path class="cls-12" d="M189,363a1,1,0,0,0-1-1h-7a1,1,0,0,0,0,2h7A1,1,0,0,0,189,363Z" transform="translate(-2 -107)"/><path class="cls-12" d="M176,362h-4a1,1,0,0,0,0,2h4a1,1,0,0,0,0-2Z" transform="translate(-2 -107)"/></g></g></svg>