<svg id="ab1" xmlns="http://www.w3.org/2000/svg" width="190" height="190" viewBox="0 0 190 190"><defs><style>.cls-1{fill:#fff;}.cls-2{fill:#07f;}</style></defs><title>homepage - features bullets svg ready</title><g id="outlines"><path id="bg" class="cls-1" d="M95,187a91.92,91.92,0,1,1,90.94-78c-.11.67-.22,1.34-.34,2A92.14,92.14,0,0,1,95,187Z"/><path class="cls-2" d="M95,1a94,94,0,1,0,92.68,109.73c.08-.4.14-.79.2-1.19A94.07,94.07,0,0,0,95,1ZM3,95A92.43,92.43,0,0,1,4.58,78H15v39H5.67A91.72,91.72,0,0,1,3,95Zm92,92A92.16,92.16,0,0,1,6.18,119H17v-7.82c.69.18,1.59.48,2.59.8A76.67,76.67,0,0,0,42,116.15V133a1,1,0,0,0,1,1h61a1,1,0,0,0,1-1V82.38a11.51,11.51,0,0,0-3.39-8.19l-17.9-17.9A1,1,0,0,0,82.9,56H43a1,1,0,0,0-1,1V68.56a.9.9,0,0,0-.28,0l-7.58,2.21a7.49,7.49,0,0,0-2.34.89L21.17,78.16c-.25.14-.6.37-1,.63-.67.43-2.12,1.35-3.16,1.86V76H5a92,92,0,0,1,181,5H180V79a1,1,0,0,0-1-1H167a1,1,0,0,0-1,1v2h-2c-.7,0-3.22-1.61-4.16-2.21-.41-.26-.76-.49-1-.62l-10.66-6.48a21.35,21.35,0,0,0-3.75-1.46l-13.51-4.4A3.58,3.58,0,0,0,127.4,67a4.38,4.38,0,0,0-1.26,4.21l.06.26a.3.3,0,0,0,0,.1c1.06,3.16,4.13,4.68,6.69,5.64l.81.29a27.07,27.07,0,0,1,2.61,1,74.27,74.27,0,0,1-7.65.44H117.92c-2.18,0-4.82,1.75-4.82,3.92V86.1a3.86,3.86,0,0,0,.6,2.07,3.86,3.86,0,0,0-2.7,3.67v3.28a3.86,3.86,0,0,0,1.88,3.32,3.87,3.87,0,0,0-.88,2.46v3.19a3.91,3.91,0,0,0,3.91,3.91h1.63a4,4,0,0,0-.54,2v1.39a3.8,3.8,0,0,0,3.47,3.78c.06,0,5.44.66,12.65.94,1,0,1.9.06,2.83.06a76.06,76.06,0,0,0,24.46-4.2,19,19,0,0,1,3.59-1h2v2a1,1,0,0,0,1,1h12a1,1,0,0,0,1-1v-2h5l.55.27A92.14,92.14,0,0,1,95,187ZM39.15,80l.49.08.85.13a.45.45,0,0,0,.16,0l1.35.18c.6.07,1.27.15,2,.22,2.11.21,4.71.39,7.32.39H62.08c1.16,0,2.82,1,2.82,1.92V86.1A1.9,1.9,0,0,1,63,88H48a1,1,0,0,0,0,2H65.16A1.85,1.85,0,0,1,67,91.84v3.28A1.88,1.88,0,0,1,65.12,97H48a1,1,0,0,0,0,2H64.1a1.9,1.9,0,0,1,1.9,1.9v3.19A1.9,1.9,0,0,1,64.1,106H47a1,1,0,0,0,0,2H59a2,2,0,0,1,2,2v1.39a1.82,1.82,0,0,1-1.72,1.8c-.05,0-5.36.65-12.47.92-1,0-1.89,0-2.81,0-.68,0-1.34,0-2,0a74.67,74.67,0,0,1-21.8-4.07c-1.35-.43-2.4-.77-3.2-.94V82.81a23.14,23.14,0,0,0,4.24-2.33c.38-.25.71-.46,1-.6l10.63-6.46a5.78,5.78,0,0,1,1.79-.67L42,70.6v6.71a1,1,0,0,0-.51.13c-.38.23-.75.47-1.09.72l-.6-.09L39.47,78a1,1,0,0,0-.32,2ZM83,79H96a7.17,7.17,0,0,1,5.29,1.82A6.46,6.46,0,0,1,103,85v47H44V116.18h0c.92,0,1.87,0,2.83-.06,7.2-.28,12.59-.93,12.6-.93A3.82,3.82,0,0,0,63,111.4V110a4,4,0,0,0-.54-2H64.1a3.91,3.91,0,0,0,3.9-3.91V100.9a3.87,3.87,0,0,0-.88-2.46A3.86,3.86,0,0,0,69,95.12V91.84a3.86,3.86,0,0,0-2.7-3.67,3.86,3.86,0,0,0,.6-2.07V82.92c0-2.17-2.64-3.92-4.82-3.92H51.32A72.38,72.38,0,0,1,44,78.59V58H82V78A1,1,0,0,0,83,79Zm1-2V59.41l16.19,16.19a9.56,9.56,0,0,1,2.25,3.55A9.24,9.24,0,0,0,96,77Zm89,27a7.91,7.91,0,0,1-5-1.77,7.74,7.74,0,0,1-2-2.37,7.95,7.95,0,0,1,0-7.72,7.73,7.73,0,0,1,2-2.37,7.95,7.95,0,0,1,10,0,7.73,7.73,0,0,1,2,2.37,7.95,7.95,0,0,1,0,7.72,7.74,7.74,0,0,1-2,2.37A7.91,7.91,0,0,1,173,104Zm5,.66V112H168v-7.34a10,10,0,0,0,10,0ZM133,106H115.91a1.9,1.9,0,0,1-1.91-1.91V100.9a1.9,1.9,0,0,1,1.9-1.9H132a1,1,0,0,0,0-2H114.88A1.88,1.88,0,0,1,113,95.12V91.84A1.85,1.85,0,0,1,114.84,90H132a1,1,0,0,0,0-2H117a1.9,1.9,0,0,1-1.9-1.9V82.92c0-.93,1.66-1.92,2.82-1.92h10.76a82.16,82.16,0,0,0,10.67-.79h.16l.84-.13.5-.08a1,1,0,0,0-.32-2l-.33.05-.59.09a20.11,20.11,0,0,0-5.23-2.52l-.76-.28c-2.13-.8-4.68-2-5.48-4.35l-.06-.26,0-.1a2.52,2.52,0,0,1,.79-2.24,1.74,1.74,0,0,1,1.51-.67l13.52,4.41.11,0a18.88,18.88,0,0,1,3.19,1.23l10.66,6.48.93.59c2.16,1.38,4,2.52,5.24,2.52h2v5.86a10,10,0,0,0,0,14.28V109h-2a17.56,17.56,0,0,0-4.2,1.07,73.17,73.17,0,0,1-26.61,4c-7.11-.27-12.42-.91-12.52-.92a1.81,1.81,0,0,1-1.67-1.8V110a2,2,0,0,1,2-2h12a1,1,0,0,0,0-2Zm35-18.66V80h10v7.34a10,10,0,0,0-10,0ZM185.94,109H180v-5.86a10,10,0,0,0,0-14.28V83h6.22a92.85,92.85,0,0,1-.28,26Z"/></g></svg>