<svg xmlns="http://www.w3.org/2000/svg" width="190" height="190" viewBox="0 0 190 190"><defs><style>.cls-1{fill:#07f;}.cls-2{fill:#fff;}.cls-3{fill:#b2b7c4;}.cls-4{fill:#ffdb80;}.cls-5{fill:#b3ddff;}</style></defs><title>homepage - features bullets svg ready</title><g id="ab3"><g id="color"><g id="outlines"><path class="cls-1" d="M155.5,117a4.5,4.5,0,1,0,4.5,4.5A4.5,4.5,0,0,0,155.5,117Zm0,7a2.5,2.5,0,1,1,2.5-2.5A2.5,2.5,0,0,1,155.5,124Z"/><path class="cls-1" d="M180.09,55A94,94,0,0,0,1,95a94.71,94.71,0,0,0,6,33A94,94,0,0,0,185,122c.69-2.3,1.3-4.63,1.81-7,.14-.66.28-1.33.4-2a94.16,94.16,0,0,0-7.17-58ZM8.83,127.3A92.71,92.71,0,0,1,3,95,92,92,0,0,1,172.87,46H114.59A3.59,3.59,0,0,0,111,49.59v60.86L75.71,133H67.24A4.49,4.49,0,0,0,66,126.76V125h6a1,1,0,0,0,0-2H67.91a2.6,2.6,0,0,0,.09-.63V100.66A2.63,2.63,0,0,0,65.37,98H63V90.11H55l-.68-5.23L34,87.52,34.73,93h-4.1A2.63,2.63,0,0,0,28,95.63v26.74a2.6,2.6,0,0,0,.09.63H22V107.69a10.43,10.43,0,0,0-3-7.32A2,2,0,1,0,17,102a2,2,0,0,0,.64-.12A8.42,8.42,0,0,1,20,107.69V123H18a1,1,0,0,0,0,2h9v1a4.08,4.08,0,0,0-.5,0,4.5,4.5,0,0,0-3.74,7H11.2C10.35,131.13,9.56,129.23,8.83,127.3ZM59.76,133H30.24A4.49,4.49,0,0,0,29,126.76V125H64v1a4.08,4.08,0,0,0-.5,0,4.5,4.5,0,0,0-3.74,7Zm3.74-5a2.73,2.73,0,0,1,.5,0h0a2.54,2.54,0,0,1,1.41.85,2.5,2.5,0,1,1-1.92-.9Zm1.87-5H30.63a.63.63,0,0,1-.63-.63V95.63a.63.63,0,0,1,.63-.63H40.4a.63.63,0,0,1,.63.63,1,1,0,0,0,0,.15c.22,1.42,1.39,4.12,4.25,4.24H65.37a.63.63,0,0,1,.63.63v21.71A.63.63,0,0,1,65.37,123ZM36.26,89.25l16.32-2.13L54,98H45.33c-1.74-.07-2.23-2.11-2.3-2.5A2.63,2.63,0,0,0,40.4,93H36.75Zm19,2.86H61V98H56ZM29,130.5a2.5,2.5,0,1,1-2.5-2.5,2.73,2.73,0,0,1,.5,0h0a2.54,2.54,0,0,1,1.41.85A2.49,2.49,0,0,1,29,130.5Zm121.42,37.94A92,92,0,0,1,12.14,135h165.7A92.94,92.94,0,0,1,150.42,168.44ZM178.76,133H160.39a12.5,12.5,0,1,0-9.79,0H79.42l31.82-20.33a3.59,3.59,0,0,0,3.35,2.33H125v7h14.86a1.75,1.75,0,0,0,.14-.5,14.78,14.78,0,0,1,.07-1.5,15.25,15.25,0,0,1,1.36-5,14,14,0,0,1,1.12-2,15.48,15.48,0,0,1,25.9,0,14,14,0,0,1,1.12,2,15.25,15.25,0,0,1,1.36,5,14.78,14.78,0,0,1,.07,1.5,1,1,0,0,0,.14.5h11.81A90.25,90.25,0,0,1,178.76,133Zm-23.26-1A10.5,10.5,0,1,1,166,121.5,10.51,10.51,0,0,1,155.5,132ZM127,120v-5h12.26a16.77,16.77,0,0,0-1.19,5Zm57.15-2.26c-.07.26-.14.53-.21.79-.13.49-.27,1-.41,1.47h-10.6a16.77,16.77,0,0,0-1.19-5H184.8C184.61,115.9,184.39,116.81,184.15,117.74Zm1.51-7.25c-.12.72-.23,1.45-.37,2.17v0c0,.11,0,.21-.06.32H170.79a17.49,17.49,0,0,0-30.58,0H114.59a1.59,1.59,0,0,1-1.59-1.59V49.59A1.59,1.59,0,0,1,114.59,48H174.1l.2.34q1,1.63,1.86,3.3l.37.7c.6,1.15,1.19,2.31,1.74,3.47l0,0a91.66,91.66,0,0,1,7.38,54.63Z"/></g><path id="bg" class="cls-2" d="M189,95a93.66,93.66,0,0,1-1.74,18c-.12.67-.26,1.34-.4,2-.51,2.37-1.12,4.7-1.81,7A94,94,0,0,1,7,128,94.71,94.71,0,0,1,1,95a94,94,0,1,1,188,0Z"/><path class="cls-3" d="M139.26,115a16.77,16.77,0,0,0-1.19,5H127v-5Z"/><path class="cls-3" d="M184.8,115c-.19.9-.41,1.81-.65,2.74-.06.26-.14.53-.21.79-.13.49-.27,1-.41,1.47h-10.6a16.77,16.77,0,0,0-1.19-5Z"/><path class="cls-4" d="M187,95a92.18,92.18,0,0,1-1.34,15.48c-.12.73-.23,1.45-.37,2.17a0,0,0,0,1,0,0c0,.11,0,.21-.06.32H170.79a17.49,17.49,0,0,0-30.58,0H114.59a1.59,1.59,0,0,1-1.59-1.59V49.59A1.59,1.59,0,0,1,114.59,48H174.1l.2.34c.64,1.09,1.27,2.19,1.86,3.3l.37.71c.6,1.15,1.19,2.3,1.73,3.47,0,0,0,0,0,0A91.09,91.09,0,0,1,187,95Z"/><path class="cls-3" d="M155.5,110A11.5,11.5,0,1,0,167,121.5,11.5,11.5,0,0,0,155.5,110Zm0,15a3.5,3.5,0,1,1,3.5-3.5A3.5,3.5,0,0,1,155.5,125Z"/><path id="folder" class="cls-5" d="M42,95.63A1.63,1.63,0,0,0,40.4,94H30.63A1.63,1.63,0,0,0,29,95.63v26.74A1.63,1.63,0,0,0,30.63,124H65.37A1.63,1.63,0,0,0,67,122.37V100.66A1.63,1.63,0,0,0,65.37,99H45.29C42.54,98.91,42,95.63,42,95.63Z"/><path class="cls-1" d="M155.5,117a4.5,4.5,0,1,0,4.5,4.5A4.5,4.5,0,0,0,155.5,117Zm0,7a2.5,2.5,0,1,1,2.5-2.5A2.5,2.5,0,0,1,155.5,124Z"/><path class="cls-1" d="M180.09,55A94,94,0,0,0,1,95a94.71,94.71,0,0,0,6,33A94,94,0,0,0,185,122c.69-2.3,1.3-4.63,1.81-7,.14-.66.28-1.33.4-2a94.16,94.16,0,0,0-7.17-58ZM8.83,127.3A93.1,93.1,0,0,1,3,95,92,92,0,0,1,172.87,46H114.59A3.59,3.59,0,0,0,111,49.59v60.86L75.71,133H67.24A4.5,4.5,0,0,0,66,126.76V125h6a1,1,0,0,0,0-2H67.91a2.18,2.18,0,0,0,.09-.63V100.66A2.63,2.63,0,0,0,65.37,98H63V90.11H55l-.68-5.23L34,87.52,34.73,93h-4.1A2.63,2.63,0,0,0,28,95.63v26.74a2.18,2.18,0,0,0,.09.63H22V107.69a10.42,10.42,0,0,0-3-7.32,1.5,1.5,0,0,0,0-.37,2,2,0,1,0-2,2,1.91,1.91,0,0,0,.64-.12A8.43,8.43,0,0,1,20,107.69V123H18a1,1,0,0,0,0,2h9v1a4.08,4.08,0,0,0-.5,0,4.5,4.5,0,0,0-3.74,7H11.2Q9.92,130.2,8.83,127.3ZM59.76,133H30.24A4.5,4.5,0,0,0,29,126.76V125H64v1a4.08,4.08,0,0,0-.5,0,4.5,4.5,0,0,0-3.74,7Zm3.74-5a2.73,2.73,0,0,1,.5,0h0a2.54,2.54,0,0,1,1.41.85,2.5,2.5,0,1,1-1.92-.9Zm1.87-5H30.63a.63.63,0,0,1-.63-.63V95.63a.63.63,0,0,1,.63-.63H40.4a.63.63,0,0,1,.63.63.92.92,0,0,0,0,.16c.22,1.41,1.1,4.09,4,4.21H65c1,0,1,.31,1,.66v21.71A.63.63,0,0,1,65.37,123ZM36.26,89.25l16.32-2.13L54,98H45.33c-1.74-.07-2.23-2.11-2.3-2.5A2.65,2.65,0,0,0,40.4,93H36.75Zm19,2.86H61V98H56ZM29,130.5a2.5,2.5,0,1,1-2.5-2.5,2.73,2.73,0,0,1,.5,0h0a2.54,2.54,0,0,1,1.41.85A2.49,2.49,0,0,1,29,130.5Zm148,6.16a2.16,2.16,0,0,1-.17.34,93,93,0,0,1-26.41,31.44A92,92,0,0,1,12.14,135h165.7C177.57,135.56,177.29,136.11,177,136.66Zm1.76-3.66H160.39a12.5,12.5,0,1,0-9.78,0H79.42l31.82-20.33a3.59,3.59,0,0,0,3.35,2.33H125v7h14.86a1.75,1.75,0,0,0,.14-.5,14.78,14.78,0,0,1,.07-1.5,15.25,15.25,0,0,1,1.36-5,14,14,0,0,1,1.12-2,15.48,15.48,0,0,1,25.9,0,14,14,0,0,1,1.12,2,15.25,15.25,0,0,1,1.36,5H171v2h11l.82.41A90.35,90.35,0,0,1,178.76,133Zm-23.26-1A10.5,10.5,0,1,1,166,121.5,10.51,10.51,0,0,1,155.5,132ZM139,115.71a16.73,16.73,0,0,0-.93,4.29H127v-5h12Zm45.15,2c-.06.26-.14.53-.21.79-.13.49-.27,1-.41,1.47h-10.6a16.77,16.77,0,0,0-1.19-5H184.8C184.61,115.9,184.39,116.81,184.15,117.74Zm1.51-7.26c-.12.73-.23,1.45-.37,2.17a0,0,0,0,1,0,0c0,.11,0,.21-.06.32H170.79a17.49,17.49,0,0,0-30.58,0H114.59a1.59,1.59,0,0,1-1.59-1.59V49.59A1.59,1.59,0,0,1,114.59,48H174.1l.2.34c.64,1.09,1.27,2.19,1.86,3.3l.37.71c.6,1.15,1.19,2.3,1.73,3.47,0,0,0,0,0,0A91.09,91.09,0,0,1,187,95,92.18,92.18,0,0,1,185.66,110.48Z"/></g></g></svg>