<svg xmlns="http://www.w3.org/2000/svg" width="120" height="120" viewBox="0 0 120 120"><defs><style>.cls-1{fill:#07f;}</style></defs><title>top_features</title><g id="ab6"><path class="cls-1" d="M81.82,36.55l1.63,1.63-8.63,8.6,2.41,2.4a2.26,2.26,0,0,1,0,3.22L75,54.66A24.91,24.91,0,1,1,30.27,76.47a24.81,24.81,0,0,1,0-19.35A24.39,24.39,0,0,1,43.53,43.85,24.9,24.9,0,0,1,65.34,45l2.26-2.26a2.26,2.26,0,0,1,3.22,0l2.41,2.41ZM48.5,50.87a2.21,2.21,0,0,0,0-1.73,2.14,2.14,0,0,0-1.2-1.24,2.21,2.21,0,0,0-1.73,0A20.56,20.56,0,0,0,34.32,59.15a2.21,2.21,0,0,0,0,1.73,2.14,2.14,0,0,0,1.24,1.2,2.37,2.37,0,0,0,.85.18,2.18,2.18,0,0,0,2.12-1.41,15.89,15.89,0,0,1,8.74-8.74A2.28,2.28,0,0,0,48.5,50.87Zm33.6-16.31a1.08,1.08,0,0,1-.78.35,1.12,1.12,0,0,1-.81-.35L77.3,31.38a1.15,1.15,0,0,1,1.63-1.63L82.11,33a1.07,1.07,0,0,1,0,1.59Zm2.79-5.13v3.39a1.13,1.13,0,1,1-2.26,0V29.44a1.13,1.13,0,1,1,2.26,0Zm5.34,1.95L87,34.57a1.08,1.08,0,0,1-.78.35,1.11,1.11,0,0,1-.81-.35,1.07,1.07,0,0,1,0-1.59l3.18-3.22a1.15,1.15,0,0,1,1.63,1.63Zm0,11.32a1.2,1.2,0,0,1-1.63,0l-3.18-3.22A1.13,1.13,0,1,1,87,37.89l3.22,3.18a1.2,1.2,0,0,1,0,1.63Zm1.13-7.29a1.13,1.13,0,0,1-.81,1.95h-3.4a1.13,1.13,0,1,1,0-2.26h3.4A1.1,1.1,0,0,1,91.37,35.42Z"/></g></svg>