<svg xmlns="http://www.w3.org/2000/svg" width="120" height="120" viewBox="0 0 120 120"><defs><style>.cls-1{fill:#07f;}</style></defs><title>top_features</title><g id="ab7"><path class="cls-1" d="M64.41,37.29V82.71a5.76,5.76,0,0,1-5.68,5.68H36a5.76,5.76,0,0,1-5.68-5.68V37.29A5.76,5.76,0,0,1,36,31.61H58.73a5.76,5.76,0,0,1,5.68,5.68ZM60.15,75.62V44.38A1.44,1.44,0,0,0,58.73,43H36a1.44,1.44,0,0,0-1.42,1.42V75.62A1.44,1.44,0,0,0,36,77H58.73a1.44,1.44,0,0,0,1.42-1.42ZM51.64,38a.63.63,0,0,0-.71-.71h-7.1a.71.71,0,1,0,0,1.42h7.1A.63.63,0,0,0,51.64,38ZM49.88,85.22a3.54,3.54,0,1,0-2.51,1A3.42,3.42,0,0,0,49.88,85.22Z"/><path class="cls-1" d="M89.45,78.68a13.51,13.51,0,0,1-1.72,3.5q-1.81,2.74-3.6,2.74a6.48,6.48,0,0,1-2-.45A6.19,6.19,0,0,0,80.05,84a5.4,5.4,0,0,0-2,.46,5.06,5.06,0,0,1-1.85.48Q74.09,85,72,81.34a14.35,14.35,0,0,1-2.06-7,8.31,8.31,0,0,1,1.58-5.24,4.83,4.83,0,0,1,4-2,9.32,9.32,0,0,1,2.48.42,9,9,0,0,0,1.93.42,7,7,0,0,0,2-.48,7.92,7.92,0,0,1,2.42-.48,5.12,5.12,0,0,1,3,.91,7.23,7.23,0,0,1,1.46,1.4,9,9,0,0,0-1.6,1.65,5,5,0,0,0-.91,2.9,5.33,5.33,0,0,0,1,3.12A4.26,4.26,0,0,0,89.45,78.68ZM84.19,62.26a5.34,5.34,0,0,1-.41,1.9,5.75,5.75,0,0,1-1.3,1.93,4,4,0,0,1-1.51,1,7.86,7.86,0,0,1-1.46.24,6.39,6.39,0,0,1,1.09-3.6,5.58,5.58,0,0,1,3.5-2.07s0,.08,0,.15a1.51,1.51,0,0,0,0,.15s0,.08,0,.14S84.19,62.22,84.19,62.26Z"/><path class="cls-1" d="M71.39,42.12a1.43,1.43,0,0,1,1.43,1.43v6a1.4,1.4,0,0,1-.41,1,1.37,1.37,0,0,1-1,.42,1.43,1.43,0,0,1-1.44-1.44v-6a1.37,1.37,0,0,1,.42-1A1.39,1.39,0,0,1,71.39,42.12ZM83,36.72a6.16,6.16,0,0,1,2.39,2.15,5.43,5.43,0,0,1,.9,3h-13a5.43,5.43,0,0,1,.9-3,6.13,6.13,0,0,1,2.41-2.15l-1-1.83a.18.18,0,0,1,.07-.28.19.19,0,0,1,.28.08l1,1.85a7,7,0,0,1,5.63,0l1-1.85a.19.19,0,0,1,.28-.08.19.19,0,0,1,.07.28Zm3.25,5.67v9.32a1.48,1.48,0,0,1-.45,1.09,1.47,1.47,0,0,1-1.08.45h-1v3.18a1.44,1.44,0,1,1-2.88,0V53.26H78.84v3.18a1.43,1.43,0,0,1-1.44,1.44,1.37,1.37,0,0,1-1-.42,1.39,1.39,0,0,1-.42-1V53.26h-1a1.53,1.53,0,0,1-1.54-1.54V42.39Zm-9.76-3a.5.5,0,0,0,.38.16.55.55,0,0,0,0-1.09.5.5,0,0,0-.38.16.56.56,0,0,0,0,.77Zm5.9,0a.52.52,0,0,0,.38.16.5.5,0,0,0,.38-.16.56.56,0,0,0,0-.77.5.5,0,0,0-.38-.16.54.54,0,0,0-.38.93Zm7.29,4.17v6A1.43,1.43,0,0,1,88.22,51a1.37,1.37,0,0,1-1-.42,1.39,1.39,0,0,1-.42-1v-6a1.37,1.37,0,0,1,.42-1,1.38,1.38,0,0,1,1-.41,1.4,1.4,0,0,1,1,.41A1.37,1.37,0,0,1,89.66,43.55Z"/></g></svg>