<svg xmlns="http://www.w3.org/2000/svg" width="120" height="120" viewBox="0 0 120 120"><defs><style>.cls-1{fill:#07f;}</style></defs><title>top_features</title><g id="ab5"><path class="cls-1" d="M28.59,49a21,21,0,1,0,21,21A21,21,0,0,0,28.59,49Zm-2.1,37.61A16.76,16.76,0,0,1,11.81,69.93a17,17,0,0,1,.44-3.75l10,10v2.1a4.21,4.21,0,0,0,4.19,4.19ZM41,81.23a4.16,4.16,0,0,0-4-2.92h-2.1V72a2.1,2.1,0,0,0-2.1-2.1H20.2V65.73h4.19a2.1,2.1,0,0,0,2.1-2.1V59.44h4.19a4.21,4.21,0,0,0,4.19-4.19v-.86A16.74,16.74,0,0,1,41,81.23Z"/><path class="cls-1" d="M112.39,52.78a8.89,8.89,0,0,1-8.88,8.88H78.34A10.39,10.39,0,0,1,68,51.3a10.34,10.34,0,0,1,6-9.37c0-.46,0-.79,0-1A11.85,11.85,0,0,1,85.74,29.1a11.85,11.85,0,0,1,11,7.36,5.9,5.9,0,0,1,8.81,7.68,8.76,8.76,0,0,1,4.94,3.13A8.59,8.59,0,0,1,112.39,52.78Zm-14.8-6.66a.72.72,0,0,0-.21-.53l-8.14-8.14a.78.78,0,0,0-1.06,0L80,45.57a.87.87,0,0,0-.23.55.71.71,0,0,0,.74.74h5.18V55a.75.75,0,0,0,.74.74h4.44a.75.75,0,0,0,.74-.74V46.86h5.18a.75.75,0,0,0,.74-.74Z"/><path class="cls-1" d="M68,58.19a.64.64,0,0,1-.2.47l-2.69,2.69a.67.67,0,0,1-1.15-.47V59.53H53.18v1.35a.67.67,0,0,1-1.15.47l-2.69-2.69a.66.66,0,0,1,0-.95L52,55a.67.67,0,0,1,1.15.47v1.35H63.94V55.49A.67.67,0,0,1,65.09,55l2.69,2.69A.65.65,0,0,1,68,58.19Z"/></g></svg>